<svg width="24" height="24" viewBox="0 0 24 24" fill="none" xmlns="http://www.w3.org/2000/svg">
    <g clip-path="url(#clip0_2_548)">
        <path d="M19.5001 13.5722L12.0001 21.0002L4.50006 13.5722M4.50006 13.5722C4.00536 13.0908 3.6157 12.5122 3.3556 11.8728C3.09551 11.2334 2.97062 10.5471 2.98879 9.85711C3.00697 9.16709 3.16782 8.48831 3.46121 7.86351C3.75461 7.23871 4.17419 6.68143 4.69354 6.22676C5.21289 5.77208 5.82076 5.42987 6.47887 5.22166C7.13697 5.01345 7.83106 4.94376 8.51743 5.01698C9.20379 5.0902 9.86756 5.30473 10.4669 5.64708C11.0663 5.98943 11.5883 6.45218 12.0001 7.00618C12.4136 6.4562 12.9362 5.9975 13.5352 5.65878C14.1341 5.32007 14.7966 5.10863 15.481 5.0377C16.1654 4.96677 16.8571 5.03787 17.5128 5.24657C18.1685 5.45526 18.7741 5.79705 19.2916 6.25054C19.8091 6.70403 20.2275 7.25946 20.5205 7.88207C20.8135 8.50468 20.9748 9.18106 20.9944 9.86889C21.0139 10.5567 20.8913 11.2412 20.6342 11.8794C20.3771 12.5177 19.991 13.096 19.5001 13.5782" fill="#F7B52C"/>
    </g>
    <defs>
        <clipPath id="clip0_2_548">
            <rect width="24" height="24" fill="white"/>
        </clipPath>
    </defs>
</svg>
