<svg width="181" height="192" viewBox="0 0 181 192" fill="none" xmlns="http://www.w3.org/2000/svg">
    <path fill-rule="evenodd" clip-rule="evenodd" d="M90.5 0C90.2239 0 90 0.223856 90 0.499999V35C90 37.2091 88.2091 39 86 39H1C0.447715 39 -2.41411e-08 39.4477 0 40L6.62228e-06 191.5C6.63435e-06 191.776 0.223864 192 0.500007 192C0.776149 192 1.00001 191.776 1.00001 191.5L1 44C1 41.7909 2.79086 40 5 40H176C178.209 40 180 41.7909 180 44V73.5C180 73.7761 180.224 74 180.5 74C180.776 74 181 73.7761 181 73.5V40C181 39.4477 180.552 39 180 39H95C92.7909 39 91 37.2091 91 35V0.5C91 0.223858 90.7761 0 90.5 0Z" fill="#F7B52C"/>
</svg>
