<svg width="116" height="66" viewBox="0 0 116 66" fill="none" xmlns="http://www.w3.org/2000/svg">
    <path fill-rule="evenodd" clip-rule="evenodd" d="M58 5.00001C58 2.79087 59.7909 1.00001 62 1.00001L115.5 1.00001C115.776 1.00001 116 0.776152 116 0.50001C116 0.223868 115.776 1.01019e-05 115.5 1.00536e-05L58 0H57H0.5C0.223858 0 0 0.223858 0 0.5C0 0.776142 0.223859 1 0.500001 1L53 1C55.2091 1 57 2.79087 57 5.00001L57 65.5C57 65.7761 57.2239 66 57.5 66C57.7761 66 58 65.7761 58 65.5L58 5.00001Z" fill="#F7B52C"/>
</svg>
